<?xml version="1.0" standalone="no"?><!DOCTYPE svg PUBLIC "-//W3C//DTD SVG 1.1//EN" "http://www.w3.org/Graphics/SVG/1.1/DTD/svg11.dtd"><svg t="1748606360169" class="icon" viewBox="0 0 1024 1024" version="1.1" xmlns="http://www.w3.org/2000/svg" p-id="4608" xmlns:xlink="http://www.w3.org/1999/xlink" width="64" height="64"><path d="M547.5 562.2s0-69.7-34.4-73.6c-34.4-3.9-141.5 0-141.5 0v-217h158.7s-1.9-71.7-32.5-71.7H239.6l40.2-118.2s-65 3.9-88 44.6-97.5 249.9-97.5 249.9 24.9 11.6 66.9-19.4c42.1-31 55.5-85.2 55.5-85.2l76.5-3.9 1.9 220.9s-132-1.9-158.7 0c-26.8 1.9-42.1 73.6-42.1 73.6H295s-17.2 122.1-68.9 211.2C174.5 862.5 77 932.2 77 932.2s70.8 29.1 139.6-11.6C285.5 879.9 336.2 701 336.2 701l161.5 200.2s14.7-95.3-2.6-122.2c-17.4-26.9-111.7-135.2-111.7-135.2l-41.2 36.8 29.3-118.5h176zM585.1 193.1v652.3h64.7l23.5 81.9L787 845.4h160V193.1H585.1z m288.3 578.2h-75.2l-95.9 73.2-20.9-73.2h-19.7V265.7h211.7v505.6z" fill="" p-id="4609"></path></svg>